<?xml version="1.0" encoding="utf-8" standalone="no"?>
<!DOCTYPE svg PUBLIC "-//W3C//DTD SVG 1.1//EN"
  "http://www.w3.org/Graphics/SVG/1.1/DTD/svg11.dtd">
<svg xmlns:xlink="http://www.w3.org/1999/xlink" width="540pt" height="331.2pt" viewBox="0 0 540 331.2" xmlns="http://www.w3.org/2000/svg" version="1.1">
 <metadata>
  <rdf:RDF xmlns:dc="http://purl.org/dc/elements/1.1/" xmlns:cc="http://creativecommons.org/ns#" xmlns:rdf="http://www.w3.org/1999/02/22-rdf-syntax-ns#">
   <cc:Work>
    <dc:type rdf:resource="http://purl.org/dc/dcmitype/StillImage"/>
    <dc:format>image/svg+xml</dc:format>
    <dc:creator>
     <cc:Agent>
      <dc:title>Matplotlib v3.11.2, https://matplotlib.org/</dc:title>
     </cc:Agent>
    </dc:creator>
   </cc:Work>
  </rdf:RDF>
 </metadata>
 <defs>
  <style type="text/css">*{stroke-linejoin: round; stroke-linecap: butt}</style>
 </defs>
 <g id="figure_1">
  <g id="patch_1">
   <path d="M 0 331.2 
L 540 331.2 
L 540 0 
L 0 0 
z
" style="fill: #fcfcfb"/>
  </g>
  <g id="axes_1">
   <g id="patch_2">
    <path d="M 57.600943 299.699057 
L 536.99976 299.699057 
L 536.99976 36.980017 
L 57.600943 36.980017 
z
" style="fill: #fcfcfb"/>
   </g>
   <g id="matplotlib.axis_1">
    <g id="xtick_1">
     <g id="line2d_1">
      <path d="M 79.391798 299.699057 
L 79.391798 36.980017 
" clip-path="url(#pe49c2583f9)" style="fill: none; stroke: #d9d8d4; stroke-opacity: 0.7; stroke-width: 0.8; stroke-linecap: square"/>
     </g>
     <g id="line2d_2">
      <defs>
       <path id="m4f391d6c04" d="M 0 0 
L 0 3 
" style="stroke: #52514e"/>
      </defs>
      <g>
       <use xlink:href="#m4f391d6c04" x="79.391798" y="299.699057" style="fill: #52514e; stroke: #52514e"/>
      </g>
     </g>
     <g id="text_1">
      <!-- 0 -->
      <g style="fill: #52514e" transform="translate(76.528673 313.036947) scale(0.09 -0.09)">
       <defs>
        <path id="DejaVuSans-13" d="M 2034 4250 
Q 1547 4250 1301 3770 
Q 1056 3291 1056 2328 
Q 1056 1369 1301 889 
Q 1547 409 2034 409 
Q 2525 409 2770 889 
Q 3016 1369 3016 2328 
Q 3016 3291 2770 3770 
Q 2525 4250 2034 4250 
z
M 2034 4750 
Q 2819 4750 3233 4129 
Q 3647 3509 3647 2328 
Q 3647 1150 3233 529 
Q 2819 -91 2034 -91 
Q 1250 -91 836 529 
Q 422 1150 422 2328 
Q 422 3509 836 4129 
Q 1250 4750 2034 4750 
z
" transform="scale(0.015625)"/>
       </defs>
       <use xlink:href="#DejaVuSans-13"/>
      </g>
     </g>
    </g>
    <g id="xtick_2">
     <g id="line2d_3">
      <path d="M 152.027983 299.699057 
L 152.027983 36.980017 
" clip-path="url(#pe49c2583f9)" style="fill: none; stroke: #d9d8d4; stroke-opacity: 0.7; stroke-width: 0.8; stroke-linecap: square"/>
     </g>
     <g id="line2d_4">
      <g>
       <use xlink:href="#m4f391d6c04" x="152.027983" y="299.699057" style="fill: #52514e; stroke: #52514e"/>
      </g>
     </g>
     <g id="text_2">
      <!-- 0.05 -->
      <g style="fill: #52514e" transform="translate(142.008452 313.036947) scale(0.09 -0.09)">
       <defs>
        <path id="DejaVuSans-11" d="M 684 794 
L 1344 794 
L 1344 0 
L 684 0 
L 684 794 
z
" transform="scale(0.015625)"/>
        <path id="DejaVuSans-18" d="M 691 4666 
L 3169 4666 
L 3169 4134 
L 1269 4134 
L 1269 2991 
Q 1406 3038 1543 3061 
Q 1681 3084 1819 3084 
Q 2600 3084 3056 2656 
Q 3513 2228 3513 1497 
Q 3513 744 3044 326 
Q 2575 -91 1722 -91 
Q 1428 -91 1123 -41 
Q 819 9 494 109 
L 494 744 
Q 775 591 1075 516 
Q 1375 441 1709 441 
Q 2250 441 2565 725 
Q 2881 1009 2881 1497 
Q 2881 1984 2565 2268 
Q 2250 2553 1709 2553 
Q 1456 2553 1204 2497 
Q 953 2441 691 2322 
L 691 4666 
z
" transform="scale(0.015625)"/>
       </defs>
       <use xlink:href="#DejaVuSans-13"/>
       <use xlink:href="#DejaVuSans-11" transform="translate(63.625 0)"/>
       <use xlink:href="#DejaVuSans-13" transform="translate(95.40625 0)"/>
       <use xlink:href="#DejaVuSans-18" transform="translate(159.03125 0)"/>
      </g>
     </g>
    </g>
    <g id="xtick_3">
     <g id="line2d_5">
      <path d="M 224.664167 299.699057 
L 224.664167 36.980017 
" clip-path="url(#pe49c2583f9)" style="fill: none; stroke: #d9d8d4; stroke-opacity: 0.7; stroke-width: 0.8; stroke-linecap: square"/>
     </g>
     <g id="line2d_6">
      <g>
       <use xlink:href="#m4f391d6c04" x="224.664167" y="299.699057" style="fill: #52514e; stroke: #52514e"/>
      </g>
     </g>
     <g id="text_3">
      <!-- 0.1 -->
      <g style="fill: #52514e" transform="translate(217.507761 313.036947) scale(0.09 -0.09)">
       <defs>
        <path id="DejaVuSans-14" d="M 794 531 
L 1825 531 
L 1825 4091 
L 703 3866 
L 703 4441 
L 1819 4666 
L 2450 4666 
L 2450 531 
L 3481 531 
L 3481 0 
L 794 0 
L 794 531 
z
" transform="scale(0.015625)"/>
       </defs>
       <use xlink:href="#DejaVuSans-13"/>
       <use xlink:href="#DejaVuSans-11" transform="translate(63.625 0)"/>
       <use xlink:href="#DejaVuSans-14" transform="translate(95.40625 0)"/>
      </g>
     </g>
    </g>
    <g id="xtick_4">
     <g id="line2d_7">
      <path d="M 297.300352 299.699057 
L 297.300352 36.980017 
" clip-path="url(#pe49c2583f9)" style="fill: none; stroke: #d9d8d4; stroke-opacity: 0.7; stroke-width: 0.8; stroke-linecap: square"/>
     </g>
     <g id="line2d_8">
      <g>
       <use xlink:href="#m4f391d6c04" x="297.300352" y="299.699057" style="fill: #52514e; stroke: #52514e"/>
      </g>
     </g>
     <g id="text_4">
      <!-- 0.15 -->
      <g style="fill: #52514e" transform="translate(287.28082 313.036947) scale(0.09 -0.09)">
       <use xlink:href="#DejaVuSans-13"/>
       <use xlink:href="#DejaVuSans-11" transform="translate(63.625 0)"/>
       <use xlink:href="#DejaVuSans-14" transform="translate(95.40625 0)"/>
       <use xlink:href="#DejaVuSans-18" transform="translate(159.03125 0)"/>
      </g>
     </g>
    </g>
    <g id="xtick_5">
     <g id="line2d_9">
      <path d="M 369.936536 299.699057 
L 369.936536 36.980017 
" clip-path="url(#pe49c2583f9)" style="fill: none; stroke: #d9d8d4; stroke-opacity: 0.7; stroke-width: 0.8; stroke-linecap: square"/>
     </g>
     <g id="line2d_10">
      <g>
       <use xlink:href="#m4f391d6c04" x="369.936536" y="299.699057" style="fill: #52514e; stroke: #52514e"/>
      </g>
     </g>
     <g id="text_5">
      <!-- 0.2 -->
      <g style="fill: #52514e" transform="translate(362.78013 313.036947) scale(0.09 -0.09)">
       <defs>
        <path id="DejaVuSans-15" d="M 1228 531 
L 3431 531 
L 3431 0 
L 469 0 
L 469 531 
Q 828 903 1448 1529 
Q 2069 2156 2228 2338 
Q 2531 2678 2651 2914 
Q 2772 3150 2772 3378 
Q 2772 3750 2511 3984 
Q 2250 4219 1831 4219 
Q 1534 4219 1204 4116 
Q 875 4013 500 3803 
L 500 4441 
Q 881 4594 1212 4672 
Q 1544 4750 1819 4750 
Q 2544 4750 2975 4387 
Q 3406 4025 3406 3419 
Q 3406 3131 3298 2873 
Q 3191 2616 2906 2266 
Q 2828 2175 2409 1742 
Q 1991 1309 1228 531 
z
" transform="scale(0.015625)"/>
       </defs>
       <use xlink:href="#DejaVuSans-13"/>
       <use xlink:href="#DejaVuSans-11" transform="translate(63.625 0)"/>
       <use xlink:href="#DejaVuSans-15" transform="translate(95.40625 0)"/>
      </g>
     </g>
    </g>
    <g id="xtick_6">
     <g id="line2d_11">
      <path d="M 442.57272 299.699057 
L 442.57272 36.980017 
" clip-path="url(#pe49c2583f9)" style="fill: none; stroke: #d9d8d4; stroke-opacity: 0.7; stroke-width: 0.8; stroke-linecap: square"/>
     </g>
     <g id="line2d_12">
      <g>
       <use xlink:href="#m4f391d6c04" x="442.57272" y="299.699057" style="fill: #52514e; stroke: #52514e"/>
      </g>
     </g>
     <g id="text_6">
      <!-- 0.25 -->
      <g style="fill: #52514e" transform="translate(432.553189 313.036947) scale(0.09 -0.09)">
       <use xlink:href="#DejaVuSans-13"/>
       <use xlink:href="#DejaVuSans-11" transform="translate(63.625 0)"/>
       <use xlink:href="#DejaVuSans-15" transform="translate(95.40625 0)"/>
       <use xlink:href="#DejaVuSans-18" transform="translate(159.03125 0)"/>
      </g>
     </g>
    </g>
    <g id="xtick_7">
     <g id="line2d_13">
      <path d="M 515.208905 299.699057 
L 515.208905 36.980017 
" clip-path="url(#pe49c2583f9)" style="fill: none; stroke: #d9d8d4; stroke-opacity: 0.7; stroke-width: 0.8; stroke-linecap: square"/>
     </g>
     <g id="line2d_14">
      <g>
       <use xlink:href="#m4f391d6c04" x="515.208905" y="299.699057" style="fill: #52514e; stroke: #52514e"/>
      </g>
     </g>
     <g id="text_7">
      <!-- 0.3 -->
      <g style="fill: #52514e" transform="translate(508.052498 313.036947) scale(0.09 -0.09)">
       <defs>
        <path id="DejaVuSans-16" d="M 2597 2516 
Q 3050 2419 3304 2112 
Q 3559 1806 3559 1356 
Q 3559 666 3084 287 
Q 2609 -91 1734 -91 
Q 1441 -91 1130 -33 
Q 819 25 488 141 
L 488 750 
Q 750 597 1062 519 
Q 1375 441 1716 441 
Q 2309 441 2620 675 
Q 2931 909 2931 1356 
Q 2931 1769 2642 2001 
Q 2353 2234 1838 2234 
L 1294 2234 
L 1294 2753 
L 1863 2753 
Q 2328 2753 2575 2939 
Q 2822 3125 2822 3475 
Q 2822 3834 2567 4026 
Q 2313 4219 1838 4219 
Q 1578 4219 1281 4162 
Q 984 4106 628 3988 
L 628 4550 
Q 988 4650 1302 4700 
Q 1616 4750 1894 4750 
Q 2613 4750 3031 4423 
Q 3450 4097 3450 3541 
Q 3450 3153 3228 2886 
Q 3006 2619 2597 2516 
z
" transform="scale(0.015625)"/>
       </defs>
       <use xlink:href="#DejaVuSans-13"/>
       <use xlink:href="#DejaVuSans-11" transform="translate(63.625 0)"/>
       <use xlink:href="#DejaVuSans-16" transform="translate(95.40625 0)"/>
      </g>
     </g>
    </g>
    <g id="text_8">
     <!-- outlier rate -->
     <g style="fill: #52514e" transform="translate(272.240977 326.037651) scale(0.09 -0.09)">
      <defs>
       <path id="DejaVuSans-52" d="M 1959 3097 
Q 1497 3097 1228 2736 
Q 959 2375 959 1747 
Q 959 1119 1226 758 
Q 1494 397 1959 397 
Q 2419 397 2687 759 
Q 2956 1122 2956 1747 
Q 2956 2369 2687 2733 
Q 2419 3097 1959 3097 
z
M 1959 3584 
Q 2709 3584 3137 3096 
Q 3566 2609 3566 1747 
Q 3566 888 3137 398 
Q 2709 -91 1959 -91 
Q 1206 -91 779 398 
Q 353 888 353 1747 
Q 353 2609 779 3096 
Q 1206 3584 1959 3584 
z
" transform="scale(0.015625)"/>
       <path id="DejaVuSans-58" d="M 544 1381 
L 544 3500 
L 1119 3500 
L 1119 1403 
Q 1119 906 1312 657 
Q 1506 409 1894 409 
Q 2359 409 2629 706 
Q 2900 1003 2900 1516 
L 2900 3500 
L 3475 3500 
L 3475 0 
L 2900 0 
L 2900 538 
Q 2691 219 2414 64 
Q 2138 -91 1772 -91 
Q 1169 -91 856 284 
Q 544 659 544 1381 
z
M 1991 3584 
L 1991 3584 
z
" transform="scale(0.015625)"/>
       <path id="DejaVuSans-57" d="M 1172 4494 
L 1172 3500 
L 2356 3500 
L 2356 3053 
L 1172 3053 
L 1172 1153 
Q 1172 725 1289 603 
Q 1406 481 1766 481 
L 2356 481 
L 2356 0 
L 1766 0 
Q 1100 0 847 248 
Q 594 497 594 1153 
L 594 3053 
L 172 3053 
L 172 3500 
L 594 3500 
L 594 4494 
L 1172 4494 
z
" transform="scale(0.015625)"/>
       <path id="DejaVuSans-4f" d="M 603 4863 
L 1178 4863 
L 1178 0 
L 603 0 
L 603 4863 
z
" transform="scale(0.015625)"/>
       <path id="DejaVuSans-4c" d="M 603 3500 
L 1178 3500 
L 1178 0 
L 603 0 
L 603 3500 
z
M 603 4863 
L 1178 4863 
L 1178 4134 
L 603 4134 
L 603 4863 
z
" transform="scale(0.015625)"/>
       <path id="DejaVuSans-48" d="M 3597 1894 
L 3597 1613 
L 953 1613 
Q 991 1019 1311 708 
Q 1631 397 2203 397 
Q 2534 397 2845 478 
Q 3156 559 3463 722 
L 3463 178 
Q 3153 47 2828 -22 
Q 2503 -91 2169 -91 
Q 1331 -91 842 396 
Q 353 884 353 1716 
Q 353 2575 817 3079 
Q 1281 3584 2069 3584 
Q 2775 3584 3186 3129 
Q 3597 2675 3597 1894 
z
M 3022 2063 
Q 3016 2534 2758 2815 
Q 2500 3097 2075 3097 
Q 1594 3097 1305 2825 
Q 1016 2553 972 2059 
L 3022 2063 
z
" transform="scale(0.015625)"/>
       <path id="DejaVuSans-55" d="M 2631 2963 
Q 2534 3019 2420 3045 
Q 2306 3072 2169 3072 
Q 1681 3072 1420 2755 
Q 1159 2438 1159 1844 
L 1159 0 
L 581 0 
L 581 3500 
L 1159 3500 
L 1159 2956 
Q 1341 3275 1631 3429 
Q 1922 3584 2338 3584 
Q 2397 3584 2469 3576 
Q 2541 3569 2628 3553 
L 2631 2963 
z
" transform="scale(0.015625)"/>
       <path id="DejaVuSans-3" transform="scale(0.015625)"/>
       <path id="DejaVuSans-44" d="M 2194 1759 
Q 1497 1759 1228 1600 
Q 959 1441 959 1056 
Q 959 750 1161 570 
Q 1363 391 1709 391 
Q 2188 391 2477 730 
Q 2766 1069 2766 1631 
L 2766 1759 
L 2194 1759 
z
M 3341 1997 
L 3341 0 
L 2766 0 
L 2766 531 
Q 2569 213 2275 61 
Q 1981 -91 1556 -91 
Q 1019 -91 701 211 
Q 384 513 384 1019 
Q 384 1609 779 1909 
Q 1175 2209 1959 2209 
L 2766 2209 
L 2766 2266 
Q 2766 2663 2505 2880 
Q 2244 3097 1772 3097 
Q 1472 3097 1187 3025 
Q 903 2953 641 2809 
L 641 3341 
Q 956 3463 1253 3523 
Q 1550 3584 1831 3584 
Q 2591 3584 2966 3190 
Q 3341 2797 3341 1997 
z
" transform="scale(0.015625)"/>
      </defs>
      <use xlink:href="#DejaVuSans-52"/>
      <use xlink:href="#DejaVuSans-58" transform="translate(61.1875 0)"/>
      <use xlink:href="#DejaVuSans-57" transform="translate(124.5625 0)"/>
      <use xlink:href="#DejaVuSans-4f" transform="translate(163.765625 0)"/>
      <use xlink:href="#DejaVuSans-4c" transform="translate(191.546875 0)"/>
      <use xlink:href="#DejaVuSans-48" transform="translate(219.328125 0)"/>
      <use xlink:href="#DejaVuSans-55" transform="translate(280.859375 0)"/>
      <use xlink:href="#DejaVuSans-3" transform="translate(321.96875 0)"/>
      <use xlink:href="#DejaVuSans-55" transform="translate(353.75 0)"/>
      <use xlink:href="#DejaVuSans-44" transform="translate(394.859375 0)"/>
      <use xlink:href="#DejaVuSans-57" transform="translate(456.140625 0)"/>
      <use xlink:href="#DejaVuSans-48" transform="translate(495.34375 0)"/>
     </g>
    </g>
   </g>
   <g id="matplotlib.axis_2">
    <g id="ytick_1">
     <g id="line2d_15">
      <path d="M 57.600943 276.199199 
L 536.99976 276.199199 
" clip-path="url(#pe49c2583f9)" style="fill: none; stroke: #d9d8d4; stroke-opacity: 0.7; stroke-width: 0.8; stroke-linecap: square"/>
     </g>
     <g id="line2d_16">
      <defs>
       <path id="mf4af086f96" d="M 0 0 
L -3 0 
" style="stroke: #52514e"/>
      </defs>
      <g>
       <use xlink:href="#mf4af086f96" x="57.600943" y="276.199199" style="fill: #52514e; stroke: #52514e"/>
      </g>
     </g>
     <g id="text_9">
      <!-- $\mathdefault{10^{0}}$ -->
      <g style="fill: #52514e" transform="translate(35.260943 280.429199) scale(0.09 -0.09)">
       <use xlink:href="#DejaVuSans-14" transform="translate(0 0.746875)"/>
       <use xlink:href="#DejaVuSans-13" transform="translate(63.623047 0.746875)"/>
       <use xlink:href="#DejaVuSans-13" transform="translate(128.203125 42.046875) scale(0.7)"/>
      </g>
     </g>
    </g>
    <g id="ytick_2">
     <g id="line2d_17">
      <defs>
       <path id="mb11579a59a" d="M 0 0 
L -2 0 
" style="stroke: #000000; stroke-width: 0.6"/>
      </defs>
      <g>
       <use xlink:href="#mb11579a59a" x="57.600943" y="287.757282" style="stroke: #000000; stroke-width: 0.6"/>
      </g>
     </g>
    </g>
    <g id="ytick_3">
     <g id="line2d_18">
      <g>
       <use xlink:href="#mb11579a59a" x="57.600943" y="200.160722" style="stroke: #000000; stroke-width: 0.6"/>
      </g>
     </g>
     <g id="text_10">
      <!-- $\mathdefault{2\times10^{0}}$ -->
      <g transform="translate(16.000943 204.860722) scale(0.1 -0.1)">
       <defs>
        <path id="DejaVuSans-99" d="M 4488 3438 
L 3059 2003 
L 4488 575 
L 4116 197 
L 2681 1631 
L 1247 197 
L 878 575 
L 2303 2003 
L 878 3438 
L 1247 3816 
L 2681 2381 
L 4116 3816 
L 4488 3438 
z
" transform="scale(0.015625)"/>
       </defs>
       <use xlink:href="#DejaVuSans-15" transform="translate(0 0.746875)"/>
       <use xlink:href="#DejaVuSans-99" transform="translate(83.105469 0.746875)"/>
       <use xlink:href="#DejaVuSans-14" transform="translate(186.376953 0.746875)"/>
       <use xlink:href="#DejaVuSans-13" transform="translate(250 0.746875)"/>
       <use xlink:href="#DejaVuSans-13" transform="translate(314.580078 42.046875) scale(0.7)"/>
      </g>
     </g>
    </g>
    <g id="ytick_4">
     <g id="line2d_19">
      <g>
       <use xlink:href="#mb11579a59a" x="57.600943" y="155.681065" style="stroke: #000000; stroke-width: 0.6"/>
      </g>
     </g>
     <g id="text_11">
      <!-- $\mathdefault{3\times10^{0}}$ -->
      <g transform="translate(16.000943 160.381065) scale(0.1 -0.1)">
       <use xlink:href="#DejaVuSans-16" transform="translate(0 0.746875)"/>
       <use xlink:href="#DejaVuSans-99" transform="translate(83.105469 0.746875)"/>
       <use xlink:href="#DejaVuSans-14" transform="translate(186.376953 0.746875)"/>
       <use xlink:href="#DejaVuSans-13" transform="translate(250 0.746875)"/>
       <use xlink:href="#DejaVuSans-13" transform="translate(314.580078 42.046875) scale(0.7)"/>
      </g>
     </g>
    </g>
    <g id="ytick_5">
     <g id="line2d_20">
      <g>
       <use xlink:href="#mb11579a59a" x="57.600943" y="124.122246" style="stroke: #000000; stroke-width: 0.6"/>
      </g>
     </g>
     <g id="text_12">
      <!-- $\mathdefault{4\times10^{0}}$ -->
      <g transform="translate(16.000943 128.822246) scale(0.1 -0.1)">
       <defs>
        <path id="DejaVuSans-17" d="M 2419 4116 
L 825 1625 
L 2419 1625 
L 2419 4116 
z
M 2253 4666 
L 3047 4666 
L 3047 1625 
L 3713 1625 
L 3713 1100 
L 3047 1100 
L 3047 0 
L 2419 0 
L 2419 1100 
L 313 1100 
L 313 1709 
L 2253 4666 
z
" transform="scale(0.015625)"/>
       </defs>
       <use xlink:href="#DejaVuSans-17" transform="translate(0 0.746875)"/>
       <use xlink:href="#DejaVuSans-99" transform="translate(83.105469 0.746875)"/>
       <use xlink:href="#DejaVuSans-14" transform="translate(186.376953 0.746875)"/>
       <use xlink:href="#DejaVuSans-13" transform="translate(250 0.746875)"/>
       <use xlink:href="#DejaVuSans-13" transform="translate(314.580078 42.046875) scale(0.7)"/>
      </g>
     </g>
    </g>
    <g id="ytick_6">
     <g id="line2d_21">
      <g>
       <use xlink:href="#mb11579a59a" x="57.600943" y="99.643324" style="stroke: #000000; stroke-width: 0.6"/>
      </g>
     </g>
    </g>
    <g id="ytick_7">
     <g id="line2d_22">
      <g>
       <use xlink:href="#mb11579a59a" x="57.600943" y="79.642588" style="stroke: #000000; stroke-width: 0.6"/>
      </g>
     </g>
     <g id="text_13">
      <!-- $\mathdefault{6\times10^{0}}$ -->
      <g transform="translate(16.000943 84.342588) scale(0.1 -0.1)">
       <defs>
        <path id="DejaVuSans-19" d="M 2113 2584 
Q 1688 2584 1439 2293 
Q 1191 2003 1191 1497 
Q 1191 994 1439 701 
Q 1688 409 2113 409 
Q 2538 409 2786 701 
Q 3034 994 3034 1497 
Q 3034 2003 2786 2293 
Q 2538 2584 2113 2584 
z
M 3366 4563 
L 3366 3988 
Q 3128 4100 2886 4159 
Q 2644 4219 2406 4219 
Q 1781 4219 1451 3797 
Q 1122 3375 1075 2522 
Q 1259 2794 1537 2939 
Q 1816 3084 2150 3084 
Q 2853 3084 3261 2657 
Q 3669 2231 3669 1497 
Q 3669 778 3244 343 
Q 2819 -91 2113 -91 
Q 1303 -91 875 529 
Q 447 1150 447 2328 
Q 447 3434 972 4092 
Q 1497 4750 2381 4750 
Q 2619 4750 2861 4703 
Q 3103 4656 3366 4563 
z
" transform="scale(0.015625)"/>
       </defs>
       <use xlink:href="#DejaVuSans-19" transform="translate(0 0.746875)"/>
       <use xlink:href="#DejaVuSans-99" transform="translate(83.105469 0.746875)"/>
       <use xlink:href="#DejaVuSans-14" transform="translate(186.376953 0.746875)"/>
       <use xlink:href="#DejaVuSans-13" transform="translate(250 0.746875)"/>
       <use xlink:href="#DejaVuSans-13" transform="translate(314.580078 42.046875) scale(0.7)"/>
      </g>
     </g>
    </g>
    <g id="ytick_8">
     <g id="line2d_23">
      <g>
       <use xlink:href="#mb11579a59a" x="57.600943" y="62.732207" style="stroke: #000000; stroke-width: 0.6"/>
      </g>
     </g>
    </g>
    <g id="ytick_9">
     <g id="line2d_24">
      <g>
       <use xlink:href="#mb11579a59a" x="57.600943" y="48.083769" style="stroke: #000000; stroke-width: 0.6"/>
      </g>
     </g>
    </g>
    <g id="text_14">
     <!-- mean NEES / dof -->
     <g style="fill: #52514e" transform="translate(9.838834 206.012271) rotate(-90) scale(0.09 -0.09)">
      <defs>
       <path id="DejaVuSans-50" d="M 3328 2828 
Q 3544 3216 3844 3400 
Q 4144 3584 4550 3584 
Q 5097 3584 5394 3201 
Q 5691 2819 5691 2113 
L 5691 0 
L 5113 0 
L 5113 2094 
Q 5113 2597 4934 2840 
Q 4756 3084 4391 3084 
Q 3944 3084 3684 2787 
Q 3425 2491 3425 1978 
L 3425 0 
L 2847 0 
L 2847 2094 
Q 2847 2600 2669 2842 
Q 2491 3084 2119 3084 
Q 1678 3084 1418 2786 
Q 1159 2488 1159 1978 
L 1159 0 
L 581 0 
L 581 3500 
L 1159 3500 
L 1159 2956 
Q 1356 3278 1631 3431 
Q 1906 3584 2284 3584 
Q 2666 3584 2933 3390 
Q 3200 3197 3328 2828 
z
" transform="scale(0.015625)"/>
       <path id="DejaVuSans-51" d="M 3513 2113 
L 3513 0 
L 2938 0 
L 2938 2094 
Q 2938 2591 2744 2837 
Q 2550 3084 2163 3084 
Q 1697 3084 1428 2787 
Q 1159 2491 1159 1978 
L 1159 0 
L 581 0 
L 581 3500 
L 1159 3500 
L 1159 2956 
Q 1366 3272 1645 3428 
Q 1925 3584 2291 3584 
Q 2894 3584 3203 3211 
Q 3513 2838 3513 2113 
z
" transform="scale(0.015625)"/>
       <path id="DejaVuSans-31" d="M 628 4666 
L 1478 4666 
L 3547 763 
L 3547 4666 
L 4159 4666 
L 4159 0 
L 3309 0 
L 1241 3903 
L 1241 0 
L 628 0 
L 628 4666 
z
" transform="scale(0.015625)"/>
       <path id="DejaVuSans-28" d="M 628 4666 
L 3578 4666 
L 3578 4134 
L 1259 4134 
L 1259 2753 
L 3481 2753 
L 3481 2222 
L 1259 2222 
L 1259 531 
L 3634 531 
L 3634 0 
L 628 0 
L 628 4666 
z
" transform="scale(0.015625)"/>
       <path id="DejaVuSans-36" d="M 3425 4513 
L 3425 3897 
Q 3066 4069 2747 4153 
Q 2428 4238 2131 4238 
Q 1616 4238 1336 4038 
Q 1056 3838 1056 3469 
Q 1056 3159 1242 3001 
Q 1428 2844 1947 2747 
L 2328 2669 
Q 3034 2534 3370 2195 
Q 3706 1856 3706 1288 
Q 3706 609 3251 259 
Q 2797 -91 1919 -91 
Q 1588 -91 1214 -16 
Q 841 59 441 206 
L 441 856 
Q 825 641 1194 531 
Q 1563 422 1919 422 
Q 2459 422 2753 634 
Q 3047 847 3047 1241 
Q 3047 1584 2836 1778 
Q 2625 1972 2144 2069 
L 1759 2144 
Q 1053 2284 737 2584 
Q 422 2884 422 3419 
Q 422 4038 858 4394 
Q 1294 4750 2059 4750 
Q 2388 4750 2728 4690 
Q 3069 4631 3425 4513 
z
" transform="scale(0.015625)"/>
       <path id="DejaVuSans-12" d="M 1625 4666 
L 2156 4666 
L 531 -594 
L 0 -594 
L 1625 4666 
z
" transform="scale(0.015625)"/>
       <path id="DejaVuSans-47" d="M 2906 2969 
L 2906 4863 
L 3481 4863 
L 3481 0 
L 2906 0 
L 2906 525 
Q 2725 213 2448 61 
Q 2172 -91 1784 -91 
Q 1150 -91 751 415 
Q 353 922 353 1747 
Q 353 2572 751 3078 
Q 1150 3584 1784 3584 
Q 2172 3584 2448 3432 
Q 2725 3281 2906 2969 
z
M 947 1747 
Q 947 1113 1208 752 
Q 1469 391 1925 391 
Q 2381 391 2643 752 
Q 2906 1113 2906 1747 
Q 2906 2381 2643 2742 
Q 2381 3103 1925 3103 
Q 1469 3103 1208 2742 
Q 947 2381 947 1747 
z
" transform="scale(0.015625)"/>
       <path id="DejaVuSans-49" d="M 2375 4863 
L 2375 4384 
L 1825 4384 
Q 1516 4384 1395 4259 
Q 1275 4134 1275 3809 
L 1275 3500 
L 2222 3500 
L 2222 3053 
L 1275 3053 
L 1275 0 
L 697 0 
L 697 3053 
L 147 3053 
L 147 3500 
L 697 3500 
L 697 3744 
Q 697 4328 969 4595 
Q 1241 4863 1831 4863 
L 2375 4863 
z
" transform="scale(0.015625)"/>
      </defs>
      <use xlink:href="#DejaVuSans-50"/>
      <use xlink:href="#DejaVuSans-48" transform="translate(97.40625 0)"/>
      <use xlink:href="#DejaVuSans-44" transform="translate(158.9375 0)"/>
      <use xlink:href="#DejaVuSans-51" transform="translate(220.21875 0)"/>
      <use xlink:href="#DejaVuSans-3" transform="translate(283.59375 0)"/>
      <use xlink:href="#DejaVuSans-31" transform="translate(315.375 0)"/>
      <use xlink:href="#DejaVuSans-28" transform="translate(390.1875 0)"/>
      <use xlink:href="#DejaVuSans-28" transform="translate(453.375 0)"/>
      <use xlink:href="#DejaVuSans-36" transform="translate(516.5625 0)"/>
      <use xlink:href="#DejaVuSans-3" transform="translate(580.046875 0)"/>
      <use xlink:href="#DejaVuSans-12" transform="translate(611.828125 0)"/>
      <use xlink:href="#DejaVuSans-3" transform="translate(645.515625 0)"/>
      <use xlink:href="#DejaVuSans-47" transform="translate(677.296875 0)"/>
      <use xlink:href="#DejaVuSans-52" transform="translate(740.78125 0)"/>
      <use xlink:href="#DejaVuSans-49" transform="translate(801.96875 0)"/>
     </g>
    </g>
   </g>
   <g id="patch_3">
    <path d="M 57.600943 287.757282 
L 536.99976 287.757282 
L 536.99976 265.74364 
L 57.600943 265.74364 
z
" clip-path="url(#pe49c2583f9)" style="fill: #d9d8d4; opacity: 0.6"/>
   </g>
   <g id="FillBetweenPolyCollection_1">
    <defs>
     <path id="md1846896f6" d="M 79.391798 -56.221189 
L 79.391798 -53.733202 
L 152.027983 -66.933192 
L 224.664167 -78.753736 
L 297.300352 -95.843931 
L 369.936536 -115.071882 
L 442.57272 -116.302309 
L 515.208905 -136.969922 
L 515.208905 -282.278209 
L 515.208905 -282.278209 
L 442.57272 -244.765786 
L 369.936536 -168.252446 
L 297.300352 -152.779823 
L 224.664167 -132.09908 
L 152.027983 -102.803788 
L 79.391798 -56.221189 
z
"/>
    </defs>
    <g clip-path="url(#pe49c2583f9)">
     <use xlink:href="#md1846896f6" x="0" y="331.2" style="fill: #52514e; fill-opacity: 0.15"/>
    </g>
   </g>
   <g id="FillBetweenPolyCollection_2">
    <defs>
     <path id="m8021456b47" d="M 79.391798 -56.221189 
L 79.391798 -53.733202 
L 152.027983 -54.394484 
L 224.664167 -54.445848 
L 297.300352 -56.7644 
L 369.936536 -58.5835 
L 442.57272 -59.225225 
L 515.208905 -63.409987 
L 515.208905 -122.67994 
L 515.208905 -122.67994 
L 442.57272 -96.030964 
L 369.936536 -73.434123 
L 297.300352 -71.504985 
L 224.664167 -63.280713 
L 152.027983 -56.916729 
L 79.391798 -56.221189 
z
"/>
    </defs>
    <g clip-path="url(#pe49c2583f9)">
     <use xlink:href="#m8021456b47" x="0" y="331.2" style="fill: #2a78d6; fill-opacity: 0.15"/>
    </g>
   </g>
   <g id="FillBetweenPolyCollection_3">
    <defs>
     <path id="m3b7f579972" d="M 79.391798 -56.223513 
L 79.391798 -53.751291 
L 152.027983 -53.947507 
L 224.664167 -53.802366 
L 297.300352 -54.271567 
L 369.936536 -54.171171 
L 442.57272 -54.02223 
L 515.208905 -53.810481 
L 515.208905 -88.133726 
L 515.208905 -88.133726 
L 442.57272 -58.409039 
L 369.936536 -57.613261 
L 297.300352 -57.08522 
L 224.664167 -57.068278 
L 152.027983 -56.385261 
L 79.391798 -56.223513 
z
"/>
    </defs>
    <g clip-path="url(#pe49c2583f9)">
     <use xlink:href="#m3b7f579972" x="0" y="331.2" style="fill: #eb6834; fill-opacity: 0.15"/>
    </g>
   </g>
   <g id="line2d_25">
    <path d="M 57.600943 276.199199 
L 536.99976 276.199199 
" clip-path="url(#pe49c2583f9)" style="fill: none; stroke-dasharray: 1.5,2.475; stroke-dashoffset: 0; stroke: #52514e; stroke-width: 1.5"/>
   </g>
   <g id="line2d_26">
    <path d="M 79.391798 275.773119 
L 152.027983 252.69031 
L 224.664167 231.508892 
L 297.300352 207.325173 
L 369.936536 191.241755 
L 442.57272 179.192759 
L 515.208905 159.772058 
" clip-path="url(#pe49c2583f9)" style="fill: none; stroke: #52514e; stroke-width: 2; stroke-linecap: square"/>
    <defs>
     <path id="mfa0c549903" d="M 0 2.5 
C 0.663008 2.5 1.29895 2.236584 1.767767 1.767767 
C 2.236584 1.29895 2.5 0.663008 2.5 0 
C 2.5 -0.663008 2.236584 -1.29895 1.767767 -1.767767 
C 1.29895 -2.236584 0.663008 -2.5 0 -2.5 
C -0.663008 -2.5 -1.29895 -2.236584 -1.767767 -1.767767 
C -2.236584 -1.29895 -2.5 -0.663008 -2.5 0 
C -2.5 0.663008 -2.236584 1.29895 -1.767767 1.767767 
C -1.29895 2.236584 -0.663008 2.5 0 2.5 
z
" style="stroke: #52514e"/>
    </defs>
    <g clip-path="url(#pe49c2583f9)">
     <use xlink:href="#mfa0c549903" x="79.391798" y="275.773119" style="fill: #52514e; stroke: #52514e"/>
     <use xlink:href="#mfa0c549903" x="152.027983" y="252.69031" style="fill: #52514e; stroke: #52514e"/>
     <use xlink:href="#mfa0c549903" x="224.664167" y="231.508892" style="fill: #52514e; stroke: #52514e"/>
     <use xlink:href="#mfa0c549903" x="297.300352" y="207.325173" style="fill: #52514e; stroke: #52514e"/>
     <use xlink:href="#mfa0c549903" x="369.936536" y="191.241755" style="fill: #52514e; stroke: #52514e"/>
     <use xlink:href="#mfa0c549903" x="442.57272" y="179.192759" style="fill: #52514e; stroke: #52514e"/>
     <use xlink:href="#mfa0c549903" x="515.208905" y="159.772058" style="fill: #52514e; stroke: #52514e"/>
    </g>
   </g>
   <g id="line2d_27">
    <path d="M 79.391798 275.787525 
L 152.027983 275.253559 
L 224.664167 274.545144 
L 297.300352 272.347475 
L 369.936536 269.113925 
L 442.57272 262.553688 
L 515.208905 258.290597 
" clip-path="url(#pe49c2583f9)" style="fill: none; stroke: #2a78d6; stroke-width: 2; stroke-linecap: square"/>
    <defs>
     <path id="m9323d21357" d="M 0 2.5 
C 0.663008 2.5 1.29895 2.236584 1.767767 1.767767 
C 2.236584 1.29895 2.5 0.663008 2.5 0 
C 2.5 -0.663008 2.236584 -1.29895 1.767767 -1.767767 
C 1.29895 -2.236584 0.663008 -2.5 0 -2.5 
C -0.663008 -2.5 -1.29895 -2.236584 -1.767767 -1.767767 
C -2.236584 -1.29895 -2.5 -0.663008 -2.5 0 
C -2.5 0.663008 -2.236584 1.29895 -1.767767 1.767767 
C -1.29895 2.236584 -0.663008 2.5 0 2.5 
z
" style="stroke: #2a78d6"/>
    </defs>
    <g clip-path="url(#pe49c2583f9)">
     <use xlink:href="#m9323d21357" x="79.391798" y="275.787525" style="fill: #2a78d6; stroke: #2a78d6"/>
     <use xlink:href="#m9323d21357" x="152.027983" y="275.253559" style="fill: #2a78d6; stroke: #2a78d6"/>
     <use xlink:href="#m9323d21357" x="224.664167" y="274.545144" style="fill: #2a78d6; stroke: #2a78d6"/>
     <use xlink:href="#m9323d21357" x="297.300352" y="272.347475" style="fill: #2a78d6; stroke: #2a78d6"/>
     <use xlink:href="#m9323d21357" x="369.936536" y="269.113925" style="fill: #2a78d6; stroke: #2a78d6"/>
     <use xlink:href="#m9323d21357" x="442.57272" y="262.553688" style="fill: #2a78d6; stroke: #2a78d6"/>
     <use xlink:href="#m9323d21357" x="515.208905" y="258.290597" style="fill: #2a78d6; stroke: #2a78d6"/>
    </g>
   </g>
   <g id="line2d_28">
    <path d="M 79.391798 275.733641 
L 152.027983 275.595948 
L 224.664167 275.395214 
L 297.300352 274.811616 
L 369.936536 274.639529 
L 442.57272 274.446325 
L 515.208905 274.279599 
" clip-path="url(#pe49c2583f9)" style="fill: none; stroke: #eb6834; stroke-width: 2; stroke-linecap: square"/>
    <defs>
     <path id="m975cd2c884" d="M 0 2.5 
C 0.663008 2.5 1.29895 2.236584 1.767767 1.767767 
C 2.236584 1.29895 2.5 0.663008 2.5 0 
C 2.5 -0.663008 2.236584 -1.29895 1.767767 -1.767767 
C 1.29895 -2.236584 0.663008 -2.5 0 -2.5 
C -0.663008 -2.5 -1.29895 -2.236584 -1.767767 -1.767767 
C -2.236584 -1.29895 -2.5 -0.663008 -2.5 0 
C -2.5 0.663008 -2.236584 1.29895 -1.767767 1.767767 
C -1.29895 2.236584 -0.663008 2.5 0 2.5 
z
" style="stroke: #eb6834"/>
    </defs>
    <g clip-path="url(#pe49c2583f9)">
     <use xlink:href="#m975cd2c884" x="79.391798" y="275.733641" style="fill: #eb6834; stroke: #eb6834"/>
     <use xlink:href="#m975cd2c884" x="152.027983" y="275.595948" style="fill: #eb6834; stroke: #eb6834"/>
     <use xlink:href="#m975cd2c884" x="224.664167" y="275.395214" style="fill: #eb6834; stroke: #eb6834"/>
     <use xlink:href="#m975cd2c884" x="297.300352" y="274.811616" style="fill: #eb6834; stroke: #eb6834"/>
     <use xlink:href="#m975cd2c884" x="369.936536" y="274.639529" style="fill: #eb6834; stroke: #eb6834"/>
     <use xlink:href="#m975cd2c884" x="442.57272" y="274.446325" style="fill: #eb6834; stroke: #eb6834"/>
     <use xlink:href="#m975cd2c884" x="515.208905" y="274.279599" style="fill: #eb6834; stroke: #eb6834"/>
    </g>
   </g>
   <g id="patch_4">
    <path d="M 57.600943 299.699057 
L 57.600943 36.980017 
" style="fill: none; stroke: #d9d8d4; stroke-linejoin: miter; stroke-linecap: square"/>
   </g>
   <g id="patch_5">
    <path d="M 57.600943 299.699057 
L 536.99976 299.699057 
" style="fill: none; stroke: #d9d8d4; stroke-linejoin: miter; stroke-linecap: square"/>
   </g>
   <g id="text_15">
    <!-- Huber on the test graphs, median and range -->
    <g style="fill: #0b0b0b" transform="translate(57.600943 28.980017) scale(0.105 -0.105)">
     <defs>
      <path id="DejaVuSans-2b" d="M 628 4666 
L 1259 4666 
L 1259 2753 
L 3553 2753 
L 3553 4666 
L 4184 4666 
L 4184 0 
L 3553 0 
L 3553 2222 
L 1259 2222 
L 1259 0 
L 628 0 
L 628 4666 
z
" transform="scale(0.015625)"/>
      <path id="DejaVuSans-45" d="M 3116 1747 
Q 3116 2381 2855 2742 
Q 2594 3103 2138 3103 
Q 1681 3103 1420 2742 
Q 1159 2381 1159 1747 
Q 1159 1113 1420 752 
Q 1681 391 2138 391 
Q 2594 391 2855 752 
Q 3116 1113 3116 1747 
z
M 1159 2969 
Q 1341 3281 1617 3432 
Q 1894 3584 2278 3584 
Q 2916 3584 3314 3078 
Q 3713 2572 3713 1747 
Q 3713 922 3314 415 
Q 2916 -91 2278 -91 
Q 1894 -91 1617 61 
Q 1341 213 1159 525 
L 1159 0 
L 581 0 
L 581 4863 
L 1159 4863 
L 1159 2969 
z
" transform="scale(0.015625)"/>
      <path id="DejaVuSans-4b" d="M 3513 2113 
L 3513 0 
L 2938 0 
L 2938 2094 
Q 2938 2591 2744 2837 
Q 2550 3084 2163 3084 
Q 1697 3084 1428 2787 
Q 1159 2491 1159 1978 
L 1159 0 
L 581 0 
L 581 4863 
L 1159 4863 
L 1159 2956 
Q 1366 3272 1645 3428 
Q 1925 3584 2291 3584 
Q 2894 3584 3203 3211 
Q 3513 2838 3513 2113 
z
" transform="scale(0.015625)"/>
      <path id="DejaVuSans-56" d="M 2834 3397 
L 2834 2853 
Q 2591 2978 2328 3040 
Q 2066 3103 1784 3103 
Q 1356 3103 1142 2972 
Q 928 2841 928 2578 
Q 928 2378 1081 2264 
Q 1234 2150 1697 2047 
L 1894 2003 
Q 2506 1872 2764 1633 
Q 3022 1394 3022 966 
Q 3022 478 2636 193 
Q 2250 -91 1575 -91 
Q 1294 -91 989 -36 
Q 684 19 347 128 
L 347 722 
Q 666 556 975 473 
Q 1284 391 1588 391 
Q 1994 391 2212 530 
Q 2431 669 2431 922 
Q 2431 1156 2273 1281 
Q 2116 1406 1581 1522 
L 1381 1569 
Q 847 1681 609 1914 
Q 372 2147 372 2553 
Q 372 3047 722 3315 
Q 1072 3584 1716 3584 
Q 2034 3584 2315 3537 
Q 2597 3491 2834 3397 
z
" transform="scale(0.015625)"/>
      <path id="DejaVuSans-4a" d="M 2906 1791 
Q 2906 2416 2648 2759 
Q 2391 3103 1925 3103 
Q 1463 3103 1205 2759 
Q 947 2416 947 1791 
Q 947 1169 1205 825 
Q 1463 481 1925 481 
Q 2391 481 2648 825 
Q 2906 1169 2906 1791 
z
M 3481 434 
Q 3481 -459 3084 -895 
Q 2688 -1331 1869 -1331 
Q 1566 -1331 1297 -1286 
Q 1028 -1241 775 -1147 
L 775 -588 
Q 1028 -725 1275 -790 
Q 1522 -856 1778 -856 
Q 2344 -856 2625 -561 
Q 2906 -266 2906 331 
L 2906 616 
Q 2728 306 2450 153 
Q 2172 0 1784 0 
Q 1141 0 747 490 
Q 353 981 353 1791 
Q 353 2603 747 3093 
Q 1141 3584 1784 3584 
Q 2172 3584 2450 3431 
Q 2728 3278 2906 2969 
L 2906 3500 
L 3481 3500 
L 3481 434 
z
" transform="scale(0.015625)"/>
      <path id="DejaVuSans-53" d="M 1159 525 
L 1159 -1331 
L 581 -1331 
L 581 3500 
L 1159 3500 
L 1159 2969 
Q 1341 3281 1617 3432 
Q 1894 3584 2278 3584 
Q 2916 3584 3314 3078 
Q 3713 2572 3713 1747 
Q 3713 922 3314 415 
Q 2916 -91 2278 -91 
Q 1894 -91 1617 61 
Q 1341 213 1159 525 
z
M 3116 1747 
Q 3116 2381 2855 2742 
Q 2594 3103 2138 3103 
Q 1681 3103 1420 2742 
Q 1159 2381 1159 1747 
Q 1159 1113 1420 752 
Q 1681 391 2138 391 
Q 2594 391 2855 752 
Q 3116 1113 3116 1747 
z
" transform="scale(0.015625)"/>
      <path id="DejaVuSans-f" d="M 750 794 
L 1409 794 
L 1409 256 
L 897 -744 
L 494 -744 
L 750 256 
L 750 794 
z
" transform="scale(0.015625)"/>
     </defs>
     <use xlink:href="#DejaVuSans-2b"/>
     <use xlink:href="#DejaVuSans-58" transform="translate(75.203125 0)"/>
     <use xlink:href="#DejaVuSans-45" transform="translate(138.578125 0)"/>
     <use xlink:href="#DejaVuSans-48" transform="translate(202.0625 0)"/>
     <use xlink:href="#DejaVuSans-55" transform="translate(263.59375 0)"/>
     <use xlink:href="#DejaVuSans-3" transform="translate(304.703125 0)"/>
     <use xlink:href="#DejaVuSans-52" transform="translate(336.484375 0)"/>
     <use xlink:href="#DejaVuSans-51" transform="translate(397.671875 0)"/>
     <use xlink:href="#DejaVuSans-3" transform="translate(461.046875 0)"/>
     <use xlink:href="#DejaVuSans-57" transform="translate(492.828125 0)"/>
     <use xlink:href="#DejaVuSans-4b" transform="translate(532.03125 0)"/>
     <use xlink:href="#DejaVuSans-48" transform="translate(595.40625 0)"/>
     <use xlink:href="#DejaVuSans-3" transform="translate(656.9375 0)"/>
     <use xlink:href="#DejaVuSans-57" transform="translate(688.71875 0)"/>
     <use xlink:href="#DejaVuSans-48" transform="translate(727.921875 0)"/>
     <use xlink:href="#DejaVuSans-56" transform="translate(789.453125 0)"/>
     <use xlink:href="#DejaVuSans-57" transform="translate(841.546875 0)"/>
     <use xlink:href="#DejaVuSans-3" transform="translate(880.75 0)"/>
     <use xlink:href="#DejaVuSans-4a" transform="translate(912.53125 0)"/>
     <use xlink:href="#DejaVuSans-55" transform="translate(976.015625 0)"/>
     <use xlink:href="#DejaVuSans-44" transform="translate(1017.125 0)"/>
     <use xlink:href="#DejaVuSans-53" transform="translate(1078.40625 0)"/>
     <use xlink:href="#DejaVuSans-4b" transform="translate(1141.890625 0)"/>
     <use xlink:href="#DejaVuSans-56" transform="translate(1205.265625 0)"/>
     <use xlink:href="#DejaVuSans-f" transform="translate(1257.359375 0)"/>
     <use xlink:href="#DejaVuSans-3" transform="translate(1289.140625 0)"/>
     <use xlink:href="#DejaVuSans-50" transform="translate(1320.921875 0)"/>
     <use xlink:href="#DejaVuSans-48" transform="translate(1418.328125 0)"/>
     <use xlink:href="#DejaVuSans-47" transform="translate(1479.859375 0)"/>
     <use xlink:href="#DejaVuSans-4c" transform="translate(1543.34375 0)"/>
     <use xlink:href="#DejaVuSans-44" transform="translate(1571.125 0)"/>
     <use xlink:href="#DejaVuSans-51" transform="translate(1632.40625 0)"/>
     <use xlink:href="#DejaVuSans-3" transform="translate(1695.78125 0)"/>
     <use xlink:href="#DejaVuSans-44" transform="translate(1727.5625 0)"/>
     <use xlink:href="#DejaVuSans-51" transform="translate(1788.84375 0)"/>
     <use xlink:href="#DejaVuSans-47" transform="translate(1852.21875 0)"/>
     <use xlink:href="#DejaVuSans-3" transform="translate(1915.703125 0)"/>
     <use xlink:href="#DejaVuSans-55" transform="translate(1947.484375 0)"/>
     <use xlink:href="#DejaVuSans-44" transform="translate(1988.59375 0)"/>
     <use xlink:href="#DejaVuSans-51" transform="translate(2049.875 0)"/>
     <use xlink:href="#DejaVuSans-4a" transform="translate(2113.25 0)"/>
     <use xlink:href="#DejaVuSans-48" transform="translate(2176.734375 0)"/>
    </g>
   </g>
   <g id="legend_1">
    <g id="patch_6">
     <path d="M 65.250943 51.088689 
L 82.250943 51.088689 
L 82.250943 45.138689 
L 65.250943 45.138689 
z
" style="fill: #d9d8d4; opacity: 0.6"/>
    </g>
    <g id="text_16">
     <!-- within 10% -->
     <g style="fill: #52514e" transform="translate(89.050943 51.088689) scale(0.085 -0.085)">
      <defs>
       <path id="DejaVuSans-5a" d="M 269 3500 
L 844 3500 
L 1563 769 
L 2278 3500 
L 2956 3500 
L 3675 769 
L 4391 3500 
L 4966 3500 
L 4050 0 
L 3372 0 
L 2619 2869 
L 1863 0 
L 1184 0 
L 269 3500 
z
" transform="scale(0.015625)"/>
       <path id="DejaVuSans-8" d="M 4653 2053 
Q 4381 2053 4226 1822 
Q 4072 1591 4072 1178 
Q 4072 772 4226 539 
Q 4381 306 4653 306 
Q 4919 306 5073 539 
Q 5228 772 5228 1178 
Q 5228 1588 5073 1820 
Q 4919 2053 4653 2053 
z
M 4653 2450 
Q 5147 2450 5437 2106 
Q 5728 1763 5728 1178 
Q 5728 594 5436 251 
Q 5144 -91 4653 -91 
Q 4153 -91 3862 251 
Q 3572 594 3572 1178 
Q 3572 1766 3864 2108 
Q 4156 2450 4653 2450 
z
M 1428 4353 
Q 1159 4353 1004 4120 
Q 850 3888 850 3481 
Q 850 3069 1003 2837 
Q 1156 2606 1428 2606 
Q 1700 2606 1854 2837 
Q 2009 3069 2009 3481 
Q 2009 3884 1853 4118 
Q 1697 4353 1428 4353 
z
M 4250 4750 
L 4750 4750 
L 1831 -91 
L 1331 -91 
L 4250 4750 
z
M 1428 4750 
Q 1922 4750 2215 4408 
Q 2509 4066 2509 3481 
Q 2509 2891 2217 2550 
Q 1925 2209 1428 2209 
Q 931 2209 642 2551 
Q 353 2894 353 3481 
Q 353 4063 643 4406 
Q 934 4750 1428 4750 
z
" transform="scale(0.015625)"/>
      </defs>
      <use xlink:href="#DejaVuSans-5a"/>
      <use xlink:href="#DejaVuSans-4c" transform="translate(81.78125 0)"/>
      <use xlink:href="#DejaVuSans-57" transform="translate(109.5625 0)"/>
      <use xlink:href="#DejaVuSans-4b" transform="translate(148.765625 0)"/>
      <use xlink:href="#DejaVuSans-4c" transform="translate(212.140625 0)"/>
      <use xlink:href="#DejaVuSans-51" transform="translate(239.921875 0)"/>
      <use xlink:href="#DejaVuSans-3" transform="translate(303.296875 0)"/>
      <use xlink:href="#DejaVuSans-14" transform="translate(335.078125 0)"/>
      <use xlink:href="#DejaVuSans-13" transform="translate(398.703125 0)"/>
      <use xlink:href="#DejaVuSans-8" transform="translate(462.328125 0)"/>
     </g>
    </g>
    <g id="line2d_29">
     <path d="M 65.250943 60.864353 
L 73.750943 60.864353 
L 82.250943 60.864353 
" style="fill: none; stroke: #52514e; stroke-width: 2; stroke-linecap: square"/>
     <g>
      <use xlink:href="#mfa0c549903" x="73.750943" y="60.864353" style="fill: #52514e; stroke: #52514e"/>
     </g>
    </g>
    <g id="text_17">
     <!-- naive covariance -->
     <g style="fill: #52514e" transform="translate(89.050943 63.839353) scale(0.085 -0.085)">
      <defs>
       <path id="DejaVuSans-59" d="M 191 3500 
L 800 3500 
L 1894 563 
L 2988 3500 
L 3597 3500 
L 2284 0 
L 1503 0 
L 191 3500 
z
" transform="scale(0.015625)"/>
       <path id="DejaVuSans-46" d="M 3122 3366 
L 3122 2828 
Q 2878 2963 2633 3030 
Q 2388 3097 2138 3097 
Q 1578 3097 1268 2742 
Q 959 2388 959 1747 
Q 959 1106 1268 751 
Q 1578 397 2138 397 
Q 2388 397 2633 464 
Q 2878 531 3122 666 
L 3122 134 
Q 2881 22 2623 -34 
Q 2366 -91 2075 -91 
Q 1284 -91 818 406 
Q 353 903 353 1747 
Q 353 2603 823 3093 
Q 1294 3584 2113 3584 
Q 2378 3584 2631 3529 
Q 2884 3475 3122 3366 
z
" transform="scale(0.015625)"/>
      </defs>
      <use xlink:href="#DejaVuSans-51"/>
      <use xlink:href="#DejaVuSans-44" transform="translate(63.375 0)"/>
      <use xlink:href="#DejaVuSans-4c" transform="translate(124.65625 0)"/>
      <use xlink:href="#DejaVuSans-59" transform="translate(152.4375 0)"/>
      <use xlink:href="#DejaVuSans-48" transform="translate(211.625 0)"/>
      <use xlink:href="#DejaVuSans-3" transform="translate(273.15625 0)"/>
      <use xlink:href="#DejaVuSans-46" transform="translate(304.9375 0)"/>
      <use xlink:href="#DejaVuSans-52" transform="translate(359.921875 0)"/>
      <use xlink:href="#DejaVuSans-59" transform="translate(421.109375 0)"/>
      <use xlink:href="#DejaVuSans-44" transform="translate(480.296875 0)"/>
      <use xlink:href="#DejaVuSans-55" transform="translate(541.578125 0)"/>
      <use xlink:href="#DejaVuSans-4c" transform="translate(582.6875 0)"/>
      <use xlink:href="#DejaVuSans-44" transform="translate(610.46875 0)"/>
      <use xlink:href="#DejaVuSans-51" transform="translate(671.75 0)"/>
      <use xlink:href="#DejaVuSans-46" transform="translate(735.125 0)"/>
      <use xlink:href="#DejaVuSans-48" transform="translate(790.109375 0)"/>
     </g>
    </g>
    <g id="line2d_30">
     <path d="M 65.250943 73.615017 
L 73.750943 73.615017 
L 82.250943 73.615017 
" style="fill: none; stroke: #2a78d6; stroke-width: 2; stroke-linecap: square"/>
     <g>
      <use xlink:href="#m9323d21357" x="73.750943" y="73.615017" style="fill: #2a78d6; stroke: #2a78d6"/>
     </g>
    </g>
    <g id="text_18">
     <!-- E6: naive plus estimated pull -->
     <g style="fill: #52514e" transform="translate(89.050943 76.590017) scale(0.085 -0.085)">
      <defs>
       <path id="DejaVuSans-1d" d="M 750 794 
L 1409 794 
L 1409 0 
L 750 0 
L 750 794 
z
M 750 3309 
L 1409 3309 
L 1409 2516 
L 750 2516 
L 750 3309 
z
" transform="scale(0.015625)"/>
      </defs>
      <use xlink:href="#DejaVuSans-28"/>
      <use xlink:href="#DejaVuSans-19" transform="translate(63.1875 0)"/>
      <use xlink:href="#DejaVuSans-1d" transform="translate(126.8125 0)"/>
      <use xlink:href="#DejaVuSans-3" transform="translate(160.5 0)"/>
      <use xlink:href="#DejaVuSans-51" transform="translate(192.28125 0)"/>
      <use xlink:href="#DejaVuSans-44" transform="translate(255.65625 0)"/>
      <use xlink:href="#DejaVuSans-4c" transform="translate(316.9375 0)"/>
      <use xlink:href="#DejaVuSans-59" transform="translate(344.71875 0)"/>
      <use xlink:href="#DejaVuSans-48" transform="translate(403.90625 0)"/>
      <use xlink:href="#DejaVuSans-3" transform="translate(465.4375 0)"/>
      <use xlink:href="#DejaVuSans-53" transform="translate(497.21875 0)"/>
      <use xlink:href="#DejaVuSans-4f" transform="translate(560.703125 0)"/>
      <use xlink:href="#DejaVuSans-58" transform="translate(588.484375 0)"/>
      <use xlink:href="#DejaVuSans-56" transform="translate(651.859375 0)"/>
      <use xlink:href="#DejaVuSans-3" transform="translate(703.953125 0)"/>
      <use xlink:href="#DejaVuSans-48" transform="translate(735.734375 0)"/>
      <use xlink:href="#DejaVuSans-56" transform="translate(797.265625 0)"/>
      <use xlink:href="#DejaVuSans-57" transform="translate(849.359375 0)"/>
      <use xlink:href="#DejaVuSans-4c" transform="translate(888.5625 0)"/>
      <use xlink:href="#DejaVuSans-50" transform="translate(916.34375 0)"/>
      <use xlink:href="#DejaVuSans-44" transform="translate(1013.75 0)"/>
      <use xlink:href="#DejaVuSans-57" transform="translate(1075.03125 0)"/>
      <use xlink:href="#DejaVuSans-48" transform="translate(1114.234375 0)"/>
      <use xlink:href="#DejaVuSans-47" transform="translate(1175.765625 0)"/>
      <use xlink:href="#DejaVuSans-3" transform="translate(1239.25 0)"/>
      <use xlink:href="#DejaVuSans-53" transform="translate(1271.03125 0)"/>
      <use xlink:href="#DejaVuSans-58" transform="translate(1334.515625 0)"/>
      <use xlink:href="#DejaVuSans-4f" transform="translate(1397.890625 0)"/>
      <use xlink:href="#DejaVuSans-4f" transform="translate(1425.671875 0)"/>
     </g>
    </g>
    <g id="line2d_31">
     <path d="M 65.250943 86.365681 
L 73.750943 86.365681 
L 82.250943 86.365681 
" style="fill: none; stroke: #eb6834; stroke-width: 2; stroke-linecap: square"/>
     <g>
      <use xlink:href="#m975cd2c884" x="73.750943" y="86.365681" style="fill: #eb6834; stroke: #eb6834"/>
     </g>
    </g>
    <g id="text_19">
     <!-- reject and refit -->
     <g style="fill: #52514e" transform="translate(89.050943 89.340681) scale(0.085 -0.085)">
      <defs>
       <path id="DejaVuSans-4d" d="M 603 3500 
L 1178 3500 
L 1178 -63 
Q 1178 -731 923 -1031 
Q 669 -1331 103 -1331 
L -116 -1331 
L -116 -844 
L 38 -844 
Q 366 -844 484 -692 
Q 603 -541 603 -63 
L 603 3500 
z
M 603 4863 
L 1178 4863 
L 1178 4134 
L 603 4134 
L 603 4863 
z
" transform="scale(0.015625)"/>
       <path id="DejaVuSans-13af" d="M 3431 3500 
L 3431 0 
L 2853 0 
L 2853 3053 
L 1275 3053 
L 1275 0 
L 697 0 
L 697 3053 
L 147 3053 
L 147 3500 
L 697 3500 
L 697 3744 
Q 697 4316 967 4589 
Q 1238 4863 1797 4863 
L 2375 4863 
L 2375 4384 
L 1825 4384 
Q 1516 4384 1395 4259 
Q 1275 4134 1275 3809 
L 1275 3500 
L 3431 3500 
z
M 2853 4856 
L 3431 4856 
L 3431 4128 
L 2853 4128 
L 2853 4856 
z
" transform="scale(0.015625)"/>
      </defs>
      <use xlink:href="#DejaVuSans-55"/>
      <use xlink:href="#DejaVuSans-48" transform="translate(38.90625 0)"/>
      <use xlink:href="#DejaVuSans-4d" transform="translate(100.4375 0)"/>
      <use xlink:href="#DejaVuSans-48" transform="translate(128.21875 0)"/>
      <use xlink:href="#DejaVuSans-46" transform="translate(189.75 0)"/>
      <use xlink:href="#DejaVuSans-57" transform="translate(244.734375 0)"/>
      <use xlink:href="#DejaVuSans-3" transform="translate(283.9375 0)"/>
      <use xlink:href="#DejaVuSans-44" transform="translate(315.71875 0)"/>
      <use xlink:href="#DejaVuSans-51" transform="translate(377 0)"/>
      <use xlink:href="#DejaVuSans-47" transform="translate(440.375 0)"/>
      <use xlink:href="#DejaVuSans-3" transform="translate(503.859375 0)"/>
      <use xlink:href="#DejaVuSans-55" transform="translate(535.640625 0)"/>
      <use xlink:href="#DejaVuSans-48" transform="translate(574.546875 0)"/>
      <use xlink:href="#DejaVuSans-13af" transform="translate(636.078125 0)"/>
      <use xlink:href="#DejaVuSans-57" transform="translate(699.0625 0)"/>
     </g>
    </g>
   </g>
  </g>
  <g id="text_20">
   <!-- E6: Huber's covariance with its estimated pull added -->
   <g style="fill: #0b0b0b" transform="translate(10.8 12.118365) scale(0.12 -0.12)">
    <defs>
     <path id="DejaVuSans-a" d="M 1147 4666 
L 1147 2931 
L 616 2931 
L 616 4666 
L 1147 4666 
z
" transform="scale(0.015625)"/>
    </defs>
    <use xlink:href="#DejaVuSans-28"/>
    <use xlink:href="#DejaVuSans-19" transform="translate(63.1875 0)"/>
    <use xlink:href="#DejaVuSans-1d" transform="translate(126.8125 0)"/>
    <use xlink:href="#DejaVuSans-3" transform="translate(160.5 0)"/>
    <use xlink:href="#DejaVuSans-2b" transform="translate(192.28125 0)"/>
    <use xlink:href="#DejaVuSans-58" transform="translate(267.484375 0)"/>
    <use xlink:href="#DejaVuSans-45" transform="translate(330.859375 0)"/>
    <use xlink:href="#DejaVuSans-48" transform="translate(394.34375 0)"/>
    <use xlink:href="#DejaVuSans-55" transform="translate(455.875 0)"/>
    <use xlink:href="#DejaVuSans-a" transform="translate(496.984375 0)"/>
    <use xlink:href="#DejaVuSans-56" transform="translate(524.46875 0)"/>
    <use xlink:href="#DejaVuSans-3" transform="translate(576.5625 0)"/>
    <use xlink:href="#DejaVuSans-46" transform="translate(608.34375 0)"/>
    <use xlink:href="#DejaVuSans-52" transform="translate(663.328125 0)"/>
    <use xlink:href="#DejaVuSans-59" transform="translate(724.515625 0)"/>
    <use xlink:href="#DejaVuSans-44" transform="translate(783.703125 0)"/>
    <use xlink:href="#DejaVuSans-55" transform="translate(844.984375 0)"/>
    <use xlink:href="#DejaVuSans-4c" transform="translate(886.09375 0)"/>
    <use xlink:href="#DejaVuSans-44" transform="translate(913.875 0)"/>
    <use xlink:href="#DejaVuSans-51" transform="translate(975.15625 0)"/>
    <use xlink:href="#DejaVuSans-46" transform="translate(1038.53125 0)"/>
    <use xlink:href="#DejaVuSans-48" transform="translate(1093.515625 0)"/>
    <use xlink:href="#DejaVuSans-3" transform="translate(1155.046875 0)"/>
    <use xlink:href="#DejaVuSans-5a" transform="translate(1186.828125 0)"/>
    <use xlink:href="#DejaVuSans-4c" transform="translate(1268.609375 0)"/>
    <use xlink:href="#DejaVuSans-57" transform="translate(1296.390625 0)"/>
    <use xlink:href="#DejaVuSans-4b" transform="translate(1335.59375 0)"/>
    <use xlink:href="#DejaVuSans-3" transform="translate(1398.96875 0)"/>
    <use xlink:href="#DejaVuSans-4c" transform="translate(1430.75 0)"/>
    <use xlink:href="#DejaVuSans-57" transform="translate(1458.53125 0)"/>
    <use xlink:href="#DejaVuSans-56" transform="translate(1497.734375 0)"/>
    <use xlink:href="#DejaVuSans-3" transform="translate(1549.828125 0)"/>
    <use xlink:href="#DejaVuSans-48" transform="translate(1581.609375 0)"/>
    <use xlink:href="#DejaVuSans-56" transform="translate(1643.140625 0)"/>
    <use xlink:href="#DejaVuSans-57" transform="translate(1695.234375 0)"/>
    <use xlink:href="#DejaVuSans-4c" transform="translate(1734.4375 0)"/>
    <use xlink:href="#DejaVuSans-50" transform="translate(1762.21875 0)"/>
    <use xlink:href="#DejaVuSans-44" transform="translate(1859.625 0)"/>
    <use xlink:href="#DejaVuSans-57" transform="translate(1920.90625 0)"/>
    <use xlink:href="#DejaVuSans-48" transform="translate(1960.109375 0)"/>
    <use xlink:href="#DejaVuSans-47" transform="translate(2021.640625 0)"/>
    <use xlink:href="#DejaVuSans-3" transform="translate(2085.125 0)"/>
    <use xlink:href="#DejaVuSans-53" transform="translate(2116.90625 0)"/>
    <use xlink:href="#DejaVuSans-58" transform="translate(2180.390625 0)"/>
    <use xlink:href="#DejaVuSans-4f" transform="translate(2243.765625 0)"/>
    <use xlink:href="#DejaVuSans-4f" transform="translate(2271.546875 0)"/>
    <use xlink:href="#DejaVuSans-3" transform="translate(2299.328125 0)"/>
    <use xlink:href="#DejaVuSans-44" transform="translate(2331.109375 0)"/>
    <use xlink:href="#DejaVuSans-47" transform="translate(2392.390625 0)"/>
    <use xlink:href="#DejaVuSans-47" transform="translate(2455.875 0)"/>
    <use xlink:href="#DejaVuSans-48" transform="translate(2519.359375 0)"/>
    <use xlink:href="#DejaVuSans-47" transform="translate(2580.890625 0)"/>
   </g>
  </g>
 </g>
 <defs>
  <clipPath id="pe49c2583f9">
   <rect x="57.600943" y="36.980017" width="479.398817" height="262.71904"/>
  </clipPath>
 </defs>
</svg>
